<?xml version="1.0" encoding="utf-8"?>
<!-- Generator: Adobe Illustrator 22.1.0, SVG Export Plug-In . SVG Version: 6.00 Build 0)  -->
<svg version="1.1" id="图层_1" xmlns="http://www.w3.org/2000/svg" xmlns:xlink="http://www.w3.org/1999/xlink" x="0px" y="0px"
	 viewBox="0 0 1024 256" style="enable-background:new 0 0 1024 256;" xml:space="preserve">
<style type="text/css">
	.st0{fill:#5179BC;}
	.st1{fill:#D5402F;}
	.st2{fill:#EBB621;}
	.st3{fill:#45A256;}
	.st4{fill:url(#SVGID_1_);}
	.st5{fill:url(#SVGID_2_);}
</style>
<g>
	<path class="st0" d="M85.7,84.1c-4.5,7.2-10.7,14.5-16,19.9l-5.3-3.6c9.8-9.9,20.5-25.3,24.9-36.1l6.2,0.9c-1.8,4.5-4.5,9-8,13.6
		h39.2v5.4H85.7z M75.9,118.4h6.2v72.3h-6.2V118.4z M79.5,103.1l4.5-4.5c4.5,4.5,11.6,10.8,16.9,16.3l-4.5,4.5
		C91.1,113.9,83.9,106.7,79.5,103.1z M95.5,87.7L100,85c2.7,3.6,7.1,9,9.8,12.6l-5.3,2.7C104.4,97.6,99.1,92.2,95.5,87.7z
		 M150.8,127.4v47h-48.1v-47H150.8z M160.6,182.6c10.7,0,11.6-1.8,11.6-10.8v-59.6h-65v-6.3h71.3v67.8c0,12.6-2.7,15.4-16.9,15.4
		h-16l-0.9-6.3C144.5,182.6,160.6,182.6,160.6,182.6z M108.9,148.2h36.5v-15.4h-36.5V148.2z M144.5,169v-15.4H108V169H144.5z
		 M140.1,84.1c-3.6,6.3-7.1,11.7-10.7,17.2l-5.3-2.7c8-10.8,15.1-22.6,19.6-34.3l6.2,0.9c-1.8,4.5-4.5,9-6.2,13.6h44.5v5.4
		C189.1,84.1,140.1,84.1,140.1,84.1z M153.4,88.6l4.5-2.7c3.6,3.6,8,9,10.7,12.6l-4.5,3.6C160.6,96.7,157,92.2,153.4,88.6z"/>
	<path class="st1" d="M324.1,165.4v26.2h-6.4v-26.2h-59.1v-6.3h59.1V141H274V85.9h28.2c-3.6-4.5-11.8-14.5-15.5-18.1l4.5-3.6
		c3.6,3.6,12.7,14.5,16.4,18.1l-4.5,3.6h30c5.5-6.3,12.7-15.4,17.3-21.7l6.4,2.7c-3.6,5.4-10,12.6-15.5,19h27.3v56H325V160h59.1v6.3
		L324.1,165.4C324.1,166.3,324.1,165.4,324.1,165.4z M279.5,110.3h37.3v-19h-37.3V110.3z M279.5,135.6h37.3v-19h-37.3V135.6z
		 M324.1,91.3v19h37.3v-19H324.1z M361.4,135.6v-19h-37.3v19H361.4z"/>
	<path class="st2" d="M667.7,92.2h15v6.3h-15v27.1l13.2-6.3l0.9,6.3l-14.1,6.3v42.5c0,9.9-2.6,11.7-13.2,11.7h-8.8l-0.9-6.3h7.9
		c7.9,0,9.7-1.8,9.7-8.1v-37l-18.5,8.1l-0.9-6.3c5.3-1.8,12.3-5.4,19.4-8.1V98.5h-17.6v-6.3h17.6V65.1h6.2L667.7,92.2L667.7,92.2z
		 M719.6,141.9v-15.4h-30.8v-47c6.2-0.9,15-3.6,22.9-7.2l1.8,5.4c-7,2.7-14.1,5.4-19.4,6.3v15.4h18.5v5.4h-18.5v16.3h24.6v-56h6.2
		v56h25.5v-16.3h-18.5v-5.4h19.4V83.2h-19.4v-5.4h25.5v48.8h-31.7v15.4H753v5.4c-7.9,10.8-15,18.1-25.5,24.4
		c9.7,4.5,22,8.1,38.7,10.8l-1.8,6.3c-18.5-3.6-31.7-8.1-43.1-13.6c-11.4,5.4-25.5,9.9-44.9,14.5l-1.8-6.3
		c17.6-3.6,30.8-7.2,40.5-11.7c-7.9-5.4-15-12.6-22.9-21.7l3.5-2.7h-10.6v-5.4C685.3,141.9,719.6,141.9,719.6,141.9z M722.2,168.1
		c8.8-5.4,15.8-11.7,22.9-20.8h-46.7C706.4,156.4,713.4,162.7,722.2,168.1z"/>
	<path class="st3" d="M836.8,188.9l-2.7-6.3c12.5-5.4,27.7-13.6,38.5-20.8l2.7,5.4C864.5,175.3,849.3,183.5,836.8,188.9z
		 M942.3,153.6l-40.3,0.9v20.8c0,10.8-3.6,14.5-16.1,14.5h-12.5l-0.9-6.3h11.6c9.8,0,11.6-2.7,11.6-9.9v-19
		c-17.9,0-36.7,0.9-52.8,1.8l-0.9-5.4c5.4,0,10.7-0.9,12.5-0.9c16.1-4.5,31.3-11.7,44.7-18.1c-12.5,0-33.1,0.9-48.3,1.8l-0.9-4.5
		c4.5,0,8.9-0.9,9.8-1.8c12.5-5.4,25-12.6,34-19.9l3.6,3.6c-7.2,5.4-15.2,9.9-24.2,15.4l35.8-0.9c7.2-3.6,13.4-8.1,18.8-11.7
		l3.6,4.5c-17,10.8-35.8,21.7-57.3,29.8l62.6-1.8c-5.4-4.5-10.7-8.1-14.3-11.7l3.6-4.5c8.1,6.3,20.6,16.3,28.6,23.5l-3.6,4.5
		C947.7,158.2,945,156.4,942.3,153.6z M842.1,101.2H894V85h-51v-5.4h51V66h6.3v13.6h51V85h-51v16.3h51.9v23.5h-6.3v-17.2h-97.5v17.2
		h-6.3L842.1,101.2L842.1,101.2z M915.5,168.1l2.7-5.4c9.8,4.5,31.3,15.4,41.2,20.8l-2.7,5.4C945.9,183.5,925.3,172.6,915.5,168.1z"
		/>
	<g>
		<g>
			
				<linearGradient id="SVGID_1_" gradientUnits="userSpaceOnUse" x1="512.3121" y1="62.6804" x2="514.8199" y2="183.0624" gradientTransform="matrix(1 0 0 -1 0 258)">
				<stop  offset="0" style="stop-color:#683FFF"/>
				<stop  offset="1" style="stop-color:#DA2AFF"/>
			</linearGradient>
			<path class="st4" d="M451.4,126.5c0-20.8,4-34.3,10.9-50.6c1-3.6,4-7.2,6.9-9c5-3.6,9.9-2.7,15.8-1.8c8.9,0.9,17.8,4.5,25.8,9
				c14.9,8.1,28.7,16.3,42.6,25.3c6.9,4.5,13.9,9.9,18.8,16.3c5,6.3,5,11.7,1,19c-5,9-11.9,16.3-21.8,22.6c-3,1.8-6.9,3.6-9.9,0.9
				c-3-1.8-4-5.4-3-9c1-3.6,2-6.3,4-9.9c5.9-12.6,2-23.5-6.9-32.5c-6.9-8.1-16.8-13.6-28.7-13.6c-14.9,0-28.7,9-33.7,22.6
				c-5,15.4,3,31.6,17.8,40.7c5,2.7,9.9,3.6,15.8,3.6c4,0,7.9,0,11.9,0c3,0,5.9,0.9,7.9,2.7c4,2.7,4,6.3,1,9.9
				c-4,4.5-8.9,7.2-14.9,9.9c-6.9,3.6-13.9,6.3-20.8,8.1c-14.9,3.6-23.8,0-31.7-10.8C457.4,170.8,451.4,148.2,451.4,126.5z"/>
			
				<linearGradient id="SVGID_2_" gradientUnits="userSpaceOnUse" x1="507.8858" y1="62.8239" x2="510.3937" y2="183.2107" gradientTransform="matrix(1 0 0 -1 0 258)">
				<stop  offset="0" style="stop-color:#683FFF"/>
				<stop  offset="1" style="stop-color:#DA2AFF"/>
			</linearGradient>
			<path class="st5" d="M508.9,109.4c10.9,0,18.8,8.1,18.8,18.1c0,9-7.9,16.3-17.8,16.3c-10.9,0-18.8-8.1-18.8-18.1
				C490.1,116.6,498,109.4,508.9,109.4z"/>
		</g>
	</g>
</g>
</svg>
